<mxfile host="app.diagrams.net" modified="2023-05-02T13:32:24.590Z" agent="5.0 (X11; Linux x86_64) AppleWebKit/537.36 (KHTML, like Gecko) Chrome/112.0.0.0 Safari/537.36" etag="jro_APbt1AtinfSft4UP" version="20.5.1" type="github">
  <diagram id="C5RBs43oDa-KdzZeNtuy" name="Page-1">
    <mxGraphModel dx="1350" dy="773" grid="1" gridSize="10" guides="1" tooltips="1" connect="1" arrows="1" fold="1" page="1" pageScale="1" pageWidth="827" pageHeight="1169" background="#99CCFF" math="0" shadow="0">
      <root>
        <mxCell id="WIyWlLk6GJQsqaUBKTNV-0" />
        <mxCell id="WIyWlLk6GJQsqaUBKTNV-1" parent="WIyWlLk6GJQsqaUBKTNV-0" />
        <object label="No" Si="" id="dLLhVsv5xaohtK0PlJ2--2">
          <mxCell style="edgeStyle=orthogonalEdgeStyle;rounded=0;orthogonalLoop=1;jettySize=auto;html=1;entryX=0;entryY=0.5;entryDx=0;entryDy=0;exitX=1;exitY=0.5;exitDx=0;exitDy=0;labelBackgroundColor=#99CCFF;" edge="1" parent="WIyWlLk6GJQsqaUBKTNV-1" source="dLLhVsv5xaohtK0PlJ2--4" target="dLLhVsv5xaohtK0PlJ2--3">
            <mxGeometry relative="1" as="geometry">
              <mxPoint x="450" y="220" as="sourcePoint" />
              <mxPoint x="560" y="120" as="targetPoint" />
            </mxGeometry>
          </mxCell>
        </object>
        <mxCell id="dLLhVsv5xaohtK0PlJ2--5" value="" style="edgeStyle=orthogonalEdgeStyle;rounded=0;orthogonalLoop=1;jettySize=auto;html=1;" edge="1" parent="WIyWlLk6GJQsqaUBKTNV-1" source="dLLhVsv5xaohtK0PlJ2--0" target="dLLhVsv5xaohtK0PlJ2--4">
          <mxGeometry relative="1" as="geometry" />
        </mxCell>
        <mxCell id="dLLhVsv5xaohtK0PlJ2--0" value="Get Next Unnassigned Trip&amp;nbsp;" style="ellipse;whiteSpace=wrap;html=1;fillColor=#d5e8d4;strokeColor=#82b366;" vertex="1" parent="WIyWlLk6GJQsqaUBKTNV-1">
          <mxGeometry x="359" y="80" width="121" height="80" as="geometry" />
        </mxCell>
        <mxCell id="dLLhVsv5xaohtK0PlJ2--3" value="END" style="ellipse;whiteSpace=wrap;html=1;aspect=fixed;fillColor=#d5e8d4;strokeColor=#82b366;" vertex="1" parent="WIyWlLk6GJQsqaUBKTNV-1">
          <mxGeometry x="550" y="195" width="50" height="50" as="geometry" />
        </mxCell>
        <mxCell id="dLLhVsv5xaohtK0PlJ2--8" value="Yes" style="edgeStyle=orthogonalEdgeStyle;rounded=0;orthogonalLoop=1;jettySize=auto;html=1;labelBackgroundColor=#99CCFF;" edge="1" parent="WIyWlLk6GJQsqaUBKTNV-1" source="dLLhVsv5xaohtK0PlJ2--4" target="dLLhVsv5xaohtK0PlJ2--7">
          <mxGeometry relative="1" as="geometry" />
        </mxCell>
        <mxCell id="dLLhVsv5xaohtK0PlJ2--4" value="" style="rhombus;whiteSpace=wrap;html=1;fillColor=#d5e8d4;strokeColor=#82b366;" vertex="1" parent="WIyWlLk6GJQsqaUBKTNV-1">
          <mxGeometry x="394.25" y="200" width="50.5" height="40" as="geometry" />
        </mxCell>
        <mxCell id="dLLhVsv5xaohtK0PlJ2--9" style="edgeStyle=orthogonalEdgeStyle;rounded=0;orthogonalLoop=1;jettySize=auto;html=1;entryX=0;entryY=0.5;entryDx=0;entryDy=0;exitX=0;exitY=0.5;exitDx=0;exitDy=0;fillColor=#d5e8d4;strokeColor=#82b366;" edge="1" parent="WIyWlLk6GJQsqaUBKTNV-1" source="dLLhVsv5xaohtK0PlJ2--11" target="dLLhVsv5xaohtK0PlJ2--0">
          <mxGeometry relative="1" as="geometry">
            <Array as="points">
              <mxPoint x="280" y="445" />
              <mxPoint x="280" y="120" />
            </Array>
          </mxGeometry>
        </mxCell>
        <mxCell id="dLLhVsv5xaohtK0PlJ2--10" value="Yes" style="edgeLabel;html=1;align=center;verticalAlign=middle;resizable=0;points=[];labelBackgroundColor=#99CCFF;" vertex="1" connectable="0" parent="dLLhVsv5xaohtK0PlJ2--9">
          <mxGeometry x="0.1117" relative="1" as="geometry">
            <mxPoint y="24" as="offset" />
          </mxGeometry>
        </mxCell>
        <mxCell id="dLLhVsv5xaohtK0PlJ2--12" value="" style="edgeStyle=orthogonalEdgeStyle;rounded=0;orthogonalLoop=1;jettySize=auto;html=1;" edge="1" parent="WIyWlLk6GJQsqaUBKTNV-1" source="dLLhVsv5xaohtK0PlJ2--7" target="dLLhVsv5xaohtK0PlJ2--11">
          <mxGeometry relative="1" as="geometry" />
        </mxCell>
        <mxCell id="dLLhVsv5xaohtK0PlJ2--7" value="Auto Assign Work Flow" style="whiteSpace=wrap;html=1;fillColor=#d5e8d4;strokeColor=#82b366;" vertex="1" parent="WIyWlLk6GJQsqaUBKTNV-1">
          <mxGeometry x="360" y="300" width="120" height="60" as="geometry" />
        </mxCell>
        <mxCell id="dLLhVsv5xaohtK0PlJ2--15" style="edgeStyle=orthogonalEdgeStyle;rounded=0;orthogonalLoop=1;jettySize=auto;html=1;exitX=1;exitY=0.5;exitDx=0;exitDy=0;entryX=0.5;entryY=1;entryDx=0;entryDy=0;" edge="1" parent="WIyWlLk6GJQsqaUBKTNV-1" source="dLLhVsv5xaohtK0PlJ2--11" target="dLLhVsv5xaohtK0PlJ2--3">
          <mxGeometry relative="1" as="geometry" />
        </mxCell>
        <mxCell id="dLLhVsv5xaohtK0PlJ2--16" value="No" style="edgeLabel;html=1;align=center;verticalAlign=middle;resizable=0;points=[];labelBackgroundColor=#99CCFF;" vertex="1" connectable="0" parent="dLLhVsv5xaohtK0PlJ2--15">
          <mxGeometry x="0.0526" y="-1" relative="1" as="geometry">
            <mxPoint as="offset" />
          </mxGeometry>
        </mxCell>
        <mxCell id="dLLhVsv5xaohtK0PlJ2--11" value="&lt;span style=&quot;&quot;&gt;&lt;span style=&quot;font-size: 11px;&quot;&gt;Rides P&lt;/span&gt;&lt;span style=&quot;font-size: 11px;&quot;&gt;rocessed&lt;/span&gt;&lt;span style=&quot;font-size: 11px;&quot;&gt;&lt;br&gt;&amp;nbsp;&amp;lt; 10&lt;/span&gt;&lt;/span&gt;" style="rhombus;whiteSpace=wrap;html=1;fillColor=#d5e8d4;strokeColor=#82b366;labelBackgroundColor=none;" vertex="1" parent="WIyWlLk6GJQsqaUBKTNV-1">
          <mxGeometry x="350" y="400" width="140" height="90" as="geometry" />
        </mxCell>
      </root>
    </mxGraphModel>
  </diagram>
</mxfile>
